<?xml version="1.0" standalone="no"?>
<!DOCTYPE svg PUBLIC "-//W3C//DTD SVG 20010904//EN"
 "http://www.w3.org/TR/2001/REC-SVG-20010904/DTD/svg10.dtd">
<svg version="1.0" xmlns="http://www.w3.org/2000/svg"
 width="512.000000pt" height="512.000000pt" viewBox="0 0 512.000000 512.000000"
 preserveAspectRatio="xMidYMid meet">

<g transform="translate(0.000000,512.000000) scale(0.100000,-0.100000)"
fill="#000000" stroke="none">
<path d="M2415 4900 c-583 -66 -1064 -440 -1260 -980 -60 -167 -77 -268 -82
-502 l-5 -218 -82 0 c-94 0 -183 -20 -243 -55 -100 -59 -180 -175 -203 -294
-13 -70 -14 -2203 0 -2284 20 -123 104 -243 210 -301 106 -58 41 -56 1810 -56
1745 0 1700 -1 1801 50 59 31 140 110 173 170 56 103 56 90 56 1270 0 650 -4
1109 -10 1144 -20 122 -99 239 -201 299 -62 37 -150 57 -245 57 l-82 0 -5 218
c-5 234 -22 334 -82 502 -180 501 -635 880 -1158 965 -118 19 -294 26 -392 15z
m445 -243 c495 -129 845 -492 955 -990 10 -45 18 -146 22 -269 l6 -198 -217 0
-216 0 0 155 c0 177 -15 270 -62 383 -46 110 -115 208 -212 299 -70 66 -108
93 -189 133 -145 71 -232 92 -387 92 -96 0 -144 -5 -205 -21 -93 -25 -218 -81
-284 -128 -125 -89 -241 -234 -299 -375 -47 -113 -62 -206 -62 -383 l0 -155
-216 0 -217 0 6 198 c4 125 12 224 22 272 104 477 445 842 912 975 132 38 192
44 378 40 141 -2 186 -7 265 -28z m-151 -622 c171 -41 341 -177 420 -335 55
-112 71 -193 71 -362 l0 -138 -640 0 -640 0 0 138 c0 168 16 250 71 362 78
160 243 293 414 334 79 19 224 19 304 1z m1566 -1080 c32 -20 56 -45 72 -74
l23 -44 0 -1129 c0 -1020 -2 -1132 -16 -1161 -23 -45 -53 -76 -96 -98 -36 -18
-85 -19 -1698 -19 -1613 0 -1662 1 -1698 19 -43 22 -73 53 -96 98 -14 29 -16
141 -16 1159 0 1123 0 1128 21 1171 22 46 61 79 118 99 29 11 355 13 1687 11
l1651 -2 48 -30z"/>
<path d="M2439 2545 c-122 -31 -228 -100 -303 -199 -73 -95 -106 -196 -106
-321 0 -145 45 -258 146 -364 l63 -67 3 -250 c3 -237 4 -251 27 -302 49 -109
170 -186 291 -186 121 0 242 77 291 186 23 51 24 65 27 302 l3 250 64 67 c107
114 151 236 143 395 -12 222 -149 404 -358 474 -82 28 -214 35 -291 15z m248
-225 c61 -27 137 -102 164 -163 36 -79 34 -192 -4 -269 -17 -35 -46 -72 -74
-95 -25 -21 -58 -50 -74 -65 l-29 -26 0 -267 c0 -285 -5 -316 -51 -349 -13 -9
-39 -16 -59 -16 -20 0 -46 7 -59 16 -46 33 -51 64 -51 349 l0 267 -29 26 c-16
15 -49 44 -74 65 -28 23 -57 60 -74 95 -38 76 -40 191 -5 267 41 89 134 166
223 185 58 11 144 3 196 -20z"/>
</g>
</svg>
