<?xml version="1.0" standalone="no"?>
<!DOCTYPE svg PUBLIC "-//W3C//DTD SVG 20010904//EN"
 "http://www.w3.org/TR/2001/REC-SVG-20010904/DTD/svg10.dtd">
<svg version="1.0" xmlns="http://www.w3.org/2000/svg"
 width="500.000000pt" height="500.000000pt" viewBox="0 0 500.000000 500.000000"
 preserveAspectRatio="xMidYMid meet">

<g transform="translate(0.000000,500.000000) scale(0.100000,-0.100000)"
fill="#000000" stroke="none">
<path d="M1335 3166 c-237 -62 -415 -228 -492 -461 -23 -70 -27 -96 -26 -205
0 -108 3 -136 26 -205 35 -106 88 -194 165 -271 78 -79 133 -117 221 -154 94
-38 156 -50 264 -50 182 1 351 64 452 169 27 29 28 33 13 47 -15 15 -20 13
-69 -26 -64 -50 -144 -92 -225 -116 -81 -25 -257 -25 -339 0 -200 60 -363 215
-426 407 -20 62 -24 94 -24 199 0 105 4 137 24 199 31 93 104 204 179 271 104
93 278 160 418 160 125 0 291 -59 395 -141 48 -39 52 -40 68 -24 15 16 12 20
-37 65 -54 49 -135 94 -227 126 -66 23 -288 29 -360 10z"/>
<path d="M1672 2817 c-51 -55 -12 -147 63 -147 75 0 113 92 60 145 -33 34 -93
34 -123 2z"/>
<path d="M2110 2696 l0 -116 25 0 c23 0 25 4 25 40 l0 40 44 0 c60 0 88 24 88
74 0 57 -19 70 -107 74 l-75 4 0 -116z m125 39 c0 -27 -3 -30 -37 -33 -38 -3
-38 -3 -38 33 0 36 0 36 38 33 34 -3 37 -6 37 -33z"/>
<path d="M2330 2695 l0 -115 25 0 c23 0 25 4 25 46 l0 45 38 -3 c35 -3 38 -6
46 -45 8 -36 14 -43 34 -43 23 0 24 2 18 43 -4 23 -13 47 -21 53 -12 9 -11 13
6 27 20 17 25 52 11 75 -12 18 -68 32 -129 32 l-53 0 0 -115z m134 52 c14 -23
-15 -47 -56 -47 -25 0 -28 3 -28 36 0 34 1 35 36 32 22 -2 41 -10 48 -21z"/>
<path d="M2560 2790 c0 -13 7 -20 20 -20 18 0 20 -7 20 -75 0 -68 -2 -75 -20
-75 -13 0 -20 -7 -20 -20 0 -18 7 -20 65 -20 58 0 65 2 65 20 0 13 -7 20 -20
20 -18 0 -20 7 -20 75 0 68 2 75 20 75 13 0 20 7 20 20 0 18 -7 20 -65 20 -58
0 -65 -2 -65 -20z"/>
<path d="M2793 2800 c-51 -21 -76 -105 -49 -162 20 -41 51 -58 106 -58 55 0
86 17 106 58 22 46 13 107 -19 140 -28 27 -104 39 -144 22z m102 -43 c22 -17
27 -96 6 -120 -17 -22 -84 -22 -101 -1 -21 24 -17 104 5 120 24 18 66 18 90 1z"/>
<path d="M3010 2696 l0 -116 25 0 c23 0 25 4 25 45 0 42 2 45 28 45 39 0 50
-11 54 -50 2 -29 7 -36 29 -38 24 -3 25 -1 21 35 -2 21 -11 45 -18 54 -12 14
-11 18 6 34 25 22 25 46 2 75 -15 19 -31 24 -95 28 l-77 5 0 -117z m128 62 c7
-7 12 -15 12 -19 0 -18 -34 -39 -61 -39 -27 0 -29 3 -29 35 0 33 2 35 33 35
18 0 38 -5 45 -12z"/>
<path d="M3240 2790 c0 -13 7 -20 20 -20 18 0 20 -7 20 -75 0 -68 -2 -75 -20
-75 -13 0 -20 -7 -20 -20 0 -18 7 -20 65 -20 58 0 65 2 65 20 0 13 -7 20 -20
20 -18 0 -20 7 -20 75 0 68 2 75 20 75 13 0 20 7 20 20 0 18 -7 20 -65 20 -58
0 -65 -2 -65 -20z"/>
<path d="M3400 2791 c0 -16 8 -20 38 -23 l37 -3 3 -92 c3 -91 3 -93 27 -93 25
0 25 1 25 95 l0 95 35 0 c28 0 35 4 35 20 0 19 -7 20 -100 20 -92 0 -100 -1
-100 -19z"/>
<path d="M3630 2803 c0 -5 18 -41 40 -81 25 -45 40 -86 40 -108 0 -30 3 -34
25 -34 22 0 25 4 25 35 0 23 15 62 40 109 22 40 40 76 40 79 0 4 -11 7 -26 7
-21 0 -29 -9 -49 -55 -14 -30 -27 -55 -30 -55 -4 0 -17 25 -31 55 -21 45 -30
55 -50 55 -13 0 -24 -3 -24 -7z"/>
<path d="M1372 2755 c-18 -8 -47 -24 -63 -36 l-30 -21 22 -24 22 -23 42 24
c64 38 131 30 178 -22 17 -19 12 -25 -184 -204 -112 -101 -218 -198 -238 -215
-36 -32 -36 -32 -17 -53 11 -12 23 -21 28 -21 5 0 113 95 240 212 l230 212 32
-14 c44 -19 123 -24 166 -11 19 6 50 25 68 42 l33 32 -23 24 -22 23 -26 -25
c-64 -61 -140 -54 -211 20 -80 83 -172 113 -247 80z"/>
<path d="M2110 2366 l0 -116 25 0 c23 0 25 4 25 40 l0 40 44 0 c60 0 88 24 88
74 0 57 -19 70 -107 74 l-75 4 0 -116z m125 39 c0 -27 -3 -30 -37 -33 -38 -3
-38 -3 -38 33 0 36 0 36 38 33 34 -3 37 -6 37 -33z"/>
<path d="M2330 2386 c0 -90 1 -95 26 -115 35 -28 112 -29 145 -2 22 17 24 29
27 115 l4 96 -26 0 c-26 0 -26 0 -26 -83 0 -93 -7 -107 -57 -107 -38 0 -42 9
-45 115 -3 64 -5 70 -25 73 -22 3 -23 1 -23 -92z"/>
<path d="M2570 2365 l0 -115 80 0 c73 0 80 2 80 20 0 18 -7 20 -55 20 l-55 0
0 95 c0 95 0 95 -25 95 l-25 0 0 -115z"/>
<path d="M2780 2462 c-27 -22 -30 -65 -6 -91 10 -11 38 -21 67 -25 53 -7 70
-25 49 -51 -18 -21 -56 -19 -80 5 -21 21 -60 27 -60 10 0 -6 11 -22 25 -35 19
-20 34 -25 77 -25 59 0 70 5 87 37 26 50 4 81 -70 97 -42 10 -55 17 -57 33 -5
30 36 38 70 13 31 -23 58 -26 58 -7 -1 51 -112 78 -160 39z"/>
<path d="M2987 2473 c-4 -3 -7 -55 -7 -115 l0 -108 90 0 c83 0 90 1 90 20 0
18 -7 20 -65 20 l-65 0 0 30 0 30 60 0 c46 0 60 3 60 15 0 10 -15 15 -57 17
-54 3 -58 5 -58 28 0 24 3 25 63 28 54 3 62 6 62 22 0 18 -7 20 -83 20 -46 0
-87 -3 -90 -7z"/>
<path d="M1516 2441 c-16 -18 -16 -21 3 -57 29 -53 27 -103 -5 -149 l-25 -38
20 -20 c20 -21 21 -21 42 -1 30 26 59 92 59 135 0 37 -46 139 -66 146 -6 2
-18 -5 -28 -16z"/>
</g>
</svg>
