<?xml version="1.0" standalone="no"?>
<!DOCTYPE svg PUBLIC "-//W3C//DTD SVG 20010904//EN"
 "http://www.w3.org/TR/2001/REC-SVG-20010904/DTD/svg10.dtd">
<svg version="1.0" xmlns="http://www.w3.org/2000/svg"
 width="512.000000pt" height="512.000000pt" viewBox="0 0 512.000000 512.000000"
 preserveAspectRatio="xMidYMid meet">

<g transform="translate(0.000000,512.000000) scale(0.100000,-0.100000)"
fill="#000000" stroke="none">
<path d="M2350 3830 c-509 -63 -994 -286 -1495 -688 -154 -124 -499 -465 -520
-515 -19 -46 -19 -88 0 -134 21 -51 368 -393 525 -519 459 -367 904 -583 1365
-665 187 -33 483 -33 670 0 464 82 910 300 1370 669 154 124 499 465 520 515
19 46 19 88 0 134 -21 49 -368 393 -520 515 -460 368 -910 589 -1365 668 -142
25 -426 35 -550 20z m495 -335 c442 -77 906 -325 1363 -728 53 -47 124 -113
157 -147 l60 -62 -105 -100 c-475 -456 -989 -746 -1480 -835 -119 -21 -420
-24 -530 -5 -516 91 -1026 376 -1520 851 l-95 91 95 91 c513 494 1066 793
1583 859 100 12 364 4 472 -15z"/>
<path d="M2422 3185 c-113 -25 -226 -87 -313 -174 -251 -252 -251 -651 0 -900
254 -253 650 -254 901 -2 253 255 253 648 -1 902 -153 155 -374 220 -587 174z
m269 -334 c69 -33 112 -74 150 -143 31 -57 34 -70 34 -148 0 -79 -3 -90 -36
-150 -154 -280 -571 -191 -597 127 -11 144 76 275 218 327 60 22 170 15 231
-13z"/>
</g>
</svg>
